<?xml version="1.0" encoding="UTF-8"?>
<svg xmlns="http://www.w3.org/2000/svg" viewBox="-31 -17 62 34" width="1550" height="850">
  <style>
    .ce-temple-shadow { fill: rgba(18, 22, 25, 0.28); }
    .ce-temple-base { fill: #b8b5ad; stroke: #38352e; stroke-width: 0.7px; stroke-linejoin: round; }
    .ce-temple-buttresses { fill: #9e9b93; stroke: #38352e; stroke-width: 0.5px; }
    .ce-temple-nave, .ce-temple-transept, .ce-temple-apse, .ce-temple-crossing, .ce-temple-westwork, .ce-temple-chancel, .ce-temple-porch, .ce-temple-roof { stroke-linejoin: round; }
    .ce-temple-spire-diagonal { stroke-linecap: round; }
    .ce-megalith-stone, .ce-megalith-portal { stroke-linejoin: round; }
  </style>
  <g class="ce-temple ce-temple--basilica" transform="translate(0 0) rotate(0)" width="54" height="28" data-element="export-basilica" id="export-basilica"><g class="ce-temple-shadow" transform="translate(0.97 1.17)" opacity="0.32"><path d="M -28.08 -3.92 L -27 -3.92 L -27 -12.88 L -18.9 -12.88 L -18.9 -10.36 L 2.7 -10.36 L 2.7 -13.72 L 11.88 -13.72 L 11.88 -9.32 L 19.44 -9.32 A 9.32 9.32 0 0 1 28.76 0 A 9.32 9.32 0 0 1 19.44 9.32 L 11.88 9.32 L 11.88 13.72 L 2.7 13.72 L 2.7 10.36 L -18.9 10.36 L -18.9 12.88 L -27 12.88 L -27 3.92 L -28.08 3.92 Z" fill="#181e22"></path></g><g class="ce-temple-base"><path d="M -28.08 -3.92 L -27 -3.92 L -27 -12.88 L -18.9 -12.88 L -18.9 -10.36 L 2.7 -10.36 L 2.7 -13.72 L 11.88 -13.72 L 11.88 -9.32 L 19.44 -9.32 A 9.32 9.32 0 0 1 28.76 0 A 9.32 9.32 0 0 1 19.44 9.32 L 11.88 9.32 L 11.88 13.72 L 2.7 13.72 L 2.7 10.36 L -18.9 10.36 L -18.9 12.88 L -27 12.88 L -27 3.92 L -28.08 3.92 Z" fill="#b8b5ad" stroke="#38352e" stroke-width="0.7" stroke-linejoin="round"></path></g><g class="ce-temple-buttresses" fill="#9e9b93" stroke="#38352e" stroke-width="0.5"><rect x="-14.04" y="-11.06" width="1.08" height="0.7"></rect><rect x="-14.04" y="10.36" width="1.08" height="0.7"></rect><rect x="-8.64" y="-11.06" width="1.08" height="0.7"></rect><rect x="-8.64" y="10.36" width="1.08" height="0.7"></rect><rect x="-3.24" y="-11.06" width="1.08" height="0.7"></rect><rect x="-3.24" y="10.36" width="1.08" height="0.7"></rect><rect x="4.46" y="-14.42" width="1.08" height="0.7"></rect><rect x="9.05" y="-14.42" width="1.08" height="0.7"></rect><rect x="4.46" y="13.72" width="1.08" height="0.7"></rect><rect x="9.05" y="13.72" width="1.08" height="0.7"></rect></g><g class="ce-temple-aisles"><polygon points="-18.9,-10.36 2.7,-10.36 2.7,-5.6 -18.9,-5.6" fill="#b2afa7" stroke="#38352e" stroke-width="0.5"></polygon><polygon points="-18.9,5.6 2.7,5.6 2.7,10.36 -18.9,10.36" fill="#9e9b93" stroke="#38352e" stroke-width="0.5"></polygon></g><g class="ce-temple-transept"><polygon points="2.7,-5.6 2.7,-13.72 7.29,-13.72 7.29,-5.6" fill="#c86a3e" stroke="#422616" stroke-width="0.45"></polygon><polygon points="7.29,-5.6 7.29,-13.72 11.88,-13.72 11.88,-5.6" fill="#a34e25" stroke="#422616" stroke-width="0.45"></polygon><polygon points="2.7,13.72 2.7,5.6 7.29,5.6 7.29,13.72" fill="#ba5d30" stroke="#422616" stroke-width="0.45"></polygon><polygon points="7.29,13.72 7.29,5.6 11.88,5.6 11.88,13.72" fill="#8c3e1a" stroke="#422616" stroke-width="0.45"></polygon><line x1="7.29" y1="-13.72" x2="7.29" y2="-5.6" stroke="#52210d" stroke-width="0.75" stroke-linecap="round"></line><line x1="7.29" y1="5.6" x2="7.29" y2="13.72" stroke="#52210d" stroke-width="0.75" stroke-linecap="round"></line></g><g class="ce-temple-apse"><path d="M 11.88 -9.32 L 19.44 -9.32 A 9.32 9.32 0 0 1 28.76 0 A 9.32 9.32 0 0 1 19.44 9.32 L 11.88 9.32 L 11.88 5.6 L 19.44 5.6 A 5.6 5.6 0 0 0 25.04 0 A 5.6 5.6 0 0 0 19.44 -5.6 L 11.88 -5.6 Z" fill="#a8a59d" stroke="#38352e" stroke-width="0.5"></path><circle cx="26.03" cy="-6.59" r="2.98" fill="#ba5d30" stroke="#38352e" stroke-width="0.55"></circle><circle cx="26.03" cy="-6.59" r="1.34" fill="#c86a3e" stroke="#52210d" stroke-width="0.4"></circle><circle cx="28.76" cy="0" r="2.98" fill="#ba5d30" stroke="#38352e" stroke-width="0.55"></circle><circle cx="28.76" cy="0" r="1.34" fill="#c86a3e" stroke="#52210d" stroke-width="0.4"></circle><circle cx="26.03" cy="6.59" r="2.98" fill="#ba5d30" stroke="#38352e" stroke-width="0.55"></circle><circle cx="26.03" cy="6.59" r="1.34" fill="#c86a3e" stroke="#52210d" stroke-width="0.4"></circle><polygon points="19.44,0 19.44,-5.6 22.24,-4.85" fill="#c86a3e" stroke="#422616" stroke-width="0.4"></polygon><line x1="19.44" y1="0" x2="22.24" y2="-4.85" stroke="#52210d" stroke-width="0.5"></line><polygon points="19.44,0 22.24,-4.85 24.29,-2.8" fill="#ba5d30" stroke="#422616" stroke-width="0.4"></polygon><line x1="19.44" y1="0" x2="24.29" y2="-2.8" stroke="#52210d" stroke-width="0.5"></line><polygon points="19.44,0 24.29,-2.8 25.04,0" fill="#ba5d30" stroke="#422616" stroke-width="0.4"></polygon><line x1="19.44" y1="0" x2="25.04" y2="0" stroke="#52210d" stroke-width="0.5"></line><polygon points="19.44,0 25.04,0 24.29,2.8" fill="#8c3e1a" stroke="#422616" stroke-width="0.4"></polygon><line x1="19.44" y1="0" x2="24.29" y2="2.8" stroke="#52210d" stroke-width="0.5"></line><polygon points="19.44,0 24.29,2.8 22.24,4.85" fill="#8c3e1a" stroke="#422616" stroke-width="0.4"></polygon><line x1="19.44" y1="0" x2="22.24" y2="4.85" stroke="#52210d" stroke-width="0.5"></line><polygon points="19.44,0 22.24,4.85 19.44,5.6" fill="#733012" stroke="#422616" stroke-width="0.4"></polygon><line x1="19.44" y1="0" x2="19.44" y2="5.6" stroke="#52210d" stroke-width="0.5"></line></g><g class="ce-temple-nave"><polygon points="-18.9,-5.6 2.7,-5.6 2.7,0 -18.9,0" fill="#c86a3e" stroke="#422616" stroke-width="0.5"></polygon><polygon points="-18.9,0 2.7,0 2.7,5.6 -18.9,5.6" fill="#8c3e1a" stroke="#422616" stroke-width="0.5"></polygon><polygon points="11.88,-5.6 19.44,-5.6 19.44,0 11.88,0" fill="#ba5d30" stroke="#422616" stroke-width="0.5"></polygon><polygon points="11.88,0 19.44,0 19.44,5.6 11.88,5.6" fill="#8c3e1a" stroke="#422616" stroke-width="0.5"></polygon><line x1="-18.9" y1="0" x2="2.7" y2="0" stroke="#52210d" stroke-width="0.9" stroke-linecap="round"></line><line x1="11.88" y1="0" x2="19.44" y2="0" stroke="#52210d" stroke-width="0.9" stroke-linecap="round"></line><line x1="-18.9" y1="-0.25" x2="2.7" y2="-0.25" stroke="#e8956e" stroke-width="0.4" opacity="0.8"></line></g><g class="ce-temple-crossing"><rect x="2.53" y="-4.76" width="9.52" height="9.52" fill="#b3b0a8" stroke="#38352e" stroke-width="0.6"></rect><polygon points="2.53,-4.76 7.29,0 12.05,-4.76" fill="#c86a3e" stroke="#422616" stroke-width="0.4"></polygon><polygon points="2.53,-4.76 7.29,0 2.53,4.76" fill="#ba5d30" stroke="#422616" stroke-width="0.4"></polygon><polygon points="2.53,4.76 7.29,0 12.05,4.76" fill="#733012" stroke="#422616" stroke-width="0.4"></polygon><polygon points="12.05,-4.76 7.29,0 12.05,4.76" fill="#8c3e1a" stroke="#422616" stroke-width="0.4"></polygon><line class="ce-temple-spire-diagonal" x1="2.53" y1="-4.76" x2="12.05" y2="4.76" stroke="#52210d" stroke-width="0.65" stroke-linecap="round"></line><line class="ce-temple-spire-diagonal" x1="2.53" y1="4.76" x2="12.05" y2="-4.76" stroke="#52210d" stroke-width="0.65" stroke-linecap="round"></line></g><g class="ce-temple-westwork"><polygon points="-28.89,0 -27,-3.64 -27,3.64" fill="#ba5d30" stroke="#422616" stroke-width="0.5"></polygon><line x1="-28.89" y1="0" x2="-27" y2="0" stroke="#52210d" stroke-width="0.65"></line><rect x="-27.2" y="-1.96" width="0.5" height="3.92" fill="#2b2721"></rect><rect x="-27" y="-12.88" width="8.1" height="7.84" fill="#b3b0a8" stroke="#38352e" stroke-width="0.6"></rect><rect x="-27.26" y="-13.14" width="0.86" height="0.86" fill="#9e9b93" stroke="#38352e" stroke-width="0.4"></rect><rect x="-19.5" y="-13.14" width="0.86" height="0.86" fill="#9e9b93" stroke="#38352e" stroke-width="0.4"></rect><polygon points="-27,-12.88 -22.95,-8.96 -18.9,-12.88" fill="#c86a3e" stroke="#422616" stroke-width="0.4"></polygon><polygon points="-27,-12.88 -22.95,-8.96 -27,-5.04" fill="#ba5d30" stroke="#422616" stroke-width="0.4"></polygon><polygon points="-18.9,-12.88 -22.95,-8.96 -18.9,-5.04" fill="#a34e25" stroke="#422616" stroke-width="0.4"></polygon><polygon points="-27,-5.04 -22.95,-8.96 -18.9,-5.04" fill="#8c3e1a" stroke="#422616" stroke-width="0.4"></polygon><line class="ce-temple-spire-diagonal" x1="-27" y1="-12.88" x2="-18.9" y2="-5.04" stroke="#52210d" stroke-width="0.6" stroke-linecap="round"></line><line class="ce-temple-spire-diagonal" x1="-27" y1="-5.04" x2="-18.9" y2="-12.88" stroke="#52210d" stroke-width="0.6" stroke-linecap="round"></line><rect x="-27" y="5.04" width="8.1" height="7.84" fill="#b3b0a8" stroke="#38352e" stroke-width="0.6"></rect><rect x="-27.26" y="12.28" width="0.86" height="0.86" fill="#9e9b93" stroke="#38352e" stroke-width="0.4"></rect><rect x="-19.5" y="12.28" width="0.86" height="0.86" fill="#9e9b93" stroke="#38352e" stroke-width="0.4"></rect><polygon points="-27,5.04 -22.95,8.96 -18.9,5.04" fill="#c86a3e" stroke="#422616" stroke-width="0.4"></polygon><polygon points="-27,5.04 -22.95,8.96 -27,12.88" fill="#ba5d30" stroke="#422616" stroke-width="0.4"></polygon><polygon points="-18.9,5.04 -22.95,8.96 -18.9,12.88" fill="#a34e25" stroke="#422616" stroke-width="0.4"></polygon><polygon points="-27,12.88 -22.95,8.96 -18.9,12.88" fill="#8c3e1a" stroke="#422616" stroke-width="0.4"></polygon><line class="ce-temple-spire-diagonal" x1="-27" y1="5.04" x2="-18.9" y2="12.88" stroke="#52210d" stroke-width="0.6" stroke-linecap="round"></line><line class="ce-temple-spire-diagonal" x1="-27" y1="12.88" x2="-18.9" y2="5.04" stroke="#52210d" stroke-width="0.6" stroke-linecap="round"></line></g></g>
</svg>